<svg width="151" height="37" viewBox="0 0 151 37" fill="none" xmlns="http://www.w3.org/2000/svg">
<g filter="url(#filter0_d_1002_514)">
<path d="M4.86667 28V1.125H10.0625V9.725H17.8264V1.125H23.0222V28H17.8264V14.5625H10.0625V28H4.86667ZM60.4223 28V0.229165L73.2029 16.1153L85.7446 0.229165V28H80.5487V20.2958C80.5487 19.4199 80.5587 18.4345 80.5786 17.3396C80.6184 16.2447 80.7179 14.9905 80.8772 13.5771C80.2601 14.6123 79.6628 15.5081 79.0855 16.2646C78.5281 17.0211 78.0105 17.7178 77.5327 18.3549L73.1133 24.2674L68.5446 18.3549C68.0867 17.7576 67.5392 17.041 66.9022 16.2049C66.2851 15.3488 65.6878 14.4431 65.1105 13.4875C65.2698 14.9407 65.3594 16.2148 65.3793 17.3097C65.4191 18.4046 65.439 19.4 65.439 20.2958V28H60.4223ZM91.6757 28V1.125H97.2299V28H91.6757ZM103.128 28V1.125H117.462V5.78333H108.324V9.90417H115.371V14.3833H108.324V23.1625H117.462V28H103.128ZM118.686 10.9792C119.542 9.74491 120.249 8.32153 120.806 6.70903C121.364 5.09653 121.642 3.23518 121.642 1.125H126.659C126.659 2.9963 126.43 4.7581 125.972 6.41042C125.534 8.06273 124.847 9.58565 123.912 10.9792H118.686ZM137.783 28.5972C136.151 28.5972 134.598 28.2986 133.125 27.7014C131.672 27.0843 130.507 26.3477 129.631 25.4917L131.094 19.5194C131.791 20.7338 132.776 21.7491 134.05 22.5653C135.325 23.3616 136.629 23.7597 137.962 23.7597C139.057 23.7597 139.913 23.4611 140.53 22.8639C141.167 22.2667 141.486 21.54 141.486 20.684C141.486 19.9873 141.317 19.41 140.978 18.9521C140.66 18.4942 140.272 18.116 139.814 17.8174C139.376 17.5187 138.988 17.2898 138.649 17.1306L135.484 15.5479C134.568 15.09 133.692 14.5525 132.856 13.9354C132.02 13.2984 131.333 12.512 130.796 11.5764C130.278 10.6407 130.019 9.48611 130.019 8.1125C130.019 6.59954 130.358 5.27569 131.035 4.14097C131.731 3.00625 132.707 2.12037 133.961 1.48333C135.215 0.846296 136.688 0.527777 138.38 0.527777C139.973 0.527777 141.386 0.786574 142.621 1.30417C143.875 1.80185 144.89 2.33935 145.666 2.91666L144.293 8.73958C143.497 7.7044 142.541 6.87824 141.426 6.26111C140.331 5.62407 139.236 5.30555 138.141 5.30555C137.166 5.30555 136.41 5.5544 135.872 6.05208C135.354 6.54977 135.096 7.1669 135.096 7.90347C135.096 8.36134 135.195 8.76944 135.394 9.12778C135.613 9.48611 135.922 9.80463 136.32 10.0833C136.718 10.362 137.186 10.6407 137.723 10.9194L140.919 12.5021C141.456 12.7609 142.043 13.0993 142.68 13.5174C143.317 13.9155 143.935 14.4231 144.532 15.0403C145.129 15.6574 145.617 16.4039 145.995 17.2799C146.373 18.1359 146.562 19.1611 146.562 20.3556C146.562 21.9083 146.204 23.3118 145.487 24.566C144.771 25.8002 143.755 26.7856 142.441 27.5222C141.147 28.2389 139.595 28.5972 137.783 28.5972Z" fill="white"/>
<path d="M41.7199 28.5375C39.7491 28.5375 37.9077 28.1792 36.1956 27.4625C34.4836 26.7259 32.9706 25.7206 31.6567 24.4465C30.3628 23.1725 29.3475 21.6894 28.6109 19.9972C27.8743 18.3051 27.5061 16.4935 27.5061 14.5625C27.5061 12.6315 27.8743 10.8199 28.6109 9.12778C29.3475 7.43565 30.3628 5.95255 31.6567 4.67847C32.9706 3.4044 34.4836 2.40903 36.1956 1.69236C37.9077 0.955787 39.7491 0.587501 41.7199 0.587501C43.6908 0.587501 45.5322 0.955787 47.2442 1.69236C48.9563 2.40903 50.4593 3.4044 51.7533 4.67847C53.0672 5.95255 54.0924 7.43565 54.829 9.12778C55.5655 10.8199 55.9338 12.6315 55.9338 14.5625C55.9338 16.4935 55.5655 18.3051 54.829 19.9972C54.0924 21.6894 53.0672 23.1725 51.7533 24.4465C50.4593 25.7206 48.9563 26.7259 47.2442 27.4625C45.5322 28.1792 43.6908 28.5375 41.7199 28.5375ZM41.7199 23.3417C43.3324 23.3417 44.7857 22.9535 46.0797 22.1771C47.3736 21.3808 48.3989 20.3157 49.1554 18.9819C49.9317 17.6481 50.3199 16.175 50.3199 14.5625C50.3199 12.9301 49.9317 11.4569 49.1554 10.1431C48.3989 8.80926 47.3736 7.75417 46.0797 6.97778C44.7857 6.18148 43.3324 5.78333 41.7199 5.78333C40.1074 5.78333 38.6442 6.18148 37.3304 6.97778C36.0364 7.75417 35.0111 8.80926 34.2547 10.1431C33.4982 11.4569 33.1199 12.9301 33.1199 14.5625C33.1199 16.175 33.4982 17.6481 34.2547 18.9819C35.0111 20.3157 36.0364 21.3808 37.3304 22.1771C38.6442 22.9535 40.1074 23.3417 41.7199 23.3417Z" fill="url(#paint0_linear_1002_514)"/>
</g>
<defs>
<filter id="filter0_d_1002_514" x="0.866699" y="0.229004" width="149.696" height="36.3682" filterUnits="userSpaceOnUse" color-interpolation-filters="sRGB">
<feFlood flood-opacity="0" result="BackgroundImageFix"/>
<feColorMatrix in="SourceAlpha" type="matrix" values="0 0 0 0 0 0 0 0 0 0 0 0 0 0 0 0 0 0 127 0" result="hardAlpha"/>
<feOffset dy="4"/>
<feGaussianBlur stdDeviation="2"/>
<feComposite in2="hardAlpha" operator="out"/>
<feColorMatrix type="matrix" values="0 0 0 0 0 0 0 0 0 0 0 0 0 0 0 0 0 0 0.25 0"/>
<feBlend mode="normal" in2="BackgroundImageFix" result="effect1_dropShadow_1002_514"/>
<feBlend mode="normal" in="SourceGraphic" in2="effect1_dropShadow_1002_514" result="shape"/>
</filter>
<linearGradient id="paint0_linear_1002_514" x1="80.5" y1="-15" x2="80.5" y2="30" gradientUnits="userSpaceOnUse">
<stop stop-color="#FFEE00"/>
<stop offset="1" stop-color="#FF01D5"/>
</linearGradient>
</defs>
</svg>

