<svg width="20" height="19" viewBox="0 0 20 19" fill="none" xmlns="http://www.w3.org/2000/svg">
    <path d="M18.1645 2.48941L18.8426 1.83836C19.0225 1.66323 19.1235 1.42569 19.1235 1.17802C19.1235 0.930336 19.0225 0.692802 18.8426 0.517666C18.6628 0.342531 18.4189 0.244141 18.1645 0.244141C17.9102 0.244141 17.6663 0.342531 17.4864 0.517666L16.1493 1.82906L13.4464 4.46116L7.41988 10.3206C6.43236 9.68614 5.23816 9.43123 4.06866 9.60527C2.89916 9.77931 1.83764 10.3699 1.08978 11.2626C0.341924 12.1553 -0.0390245 13.2866 0.0207525 14.4372C0.0805294 15.5878 0.576776 16.6759 1.41334 17.4905C2.2499 18.3052 3.36721 18.7884 4.54877 18.8467C5.73033 18.9049 6.89202 18.5339 7.80874 17.8056C8.72546 17.0773 9.33193 16.0436 9.51065 14.9048C9.68937 13.7659 9.42761 12.6029 8.77609 11.6413L14.115 6.43291L16.1398 8.41395C16.2288 8.50006 16.3344 8.56825 16.4505 8.61461C16.5666 8.66098 16.691 8.68462 16.8165 8.68419C16.942 8.68376 17.0661 8.65926 17.1819 8.6121C17.2977 8.56493 17.4028 8.49602 17.4912 8.4093C17.5796 8.32259 17.6496 8.21976 17.6973 8.10669C17.7449 7.99362 17.7692 7.87252 17.7687 7.75032C17.7683 7.62811 17.7431 7.50719 17.6947 7.39445C17.6462 7.28171 17.5755 7.17936 17.4864 7.09326L15.4617 5.12151L16.8179 3.81011L17.4864 4.46116C17.5749 4.54788 17.6799 4.61679 17.7957 4.66395C17.9115 4.71112 18.0357 4.73562 18.1612 4.73605C18.2867 4.73648 18.411 4.71284 18.5271 4.66647C18.6432 4.6201 18.7488 4.55192 18.8379 4.46581C18.9269 4.3797 18.9977 4.27736 19.0461 4.16462C19.0945 4.05188 19.1197 3.93096 19.1201 3.80875C19.1206 3.68654 19.0963 3.56545 19.0487 3.45238C19.0011 3.33931 18.9311 3.23648 18.8426 3.14976L18.1645 2.48941ZM4.79341 16.9892C4.22672 16.9892 3.67275 16.8256 3.20156 16.519C2.73038 16.2124 2.36313 15.7766 2.14627 15.2668C1.92941 14.7569 1.87266 14.1959 1.98322 13.6546C2.09378 13.1134 2.36666 12.6162 2.76738 12.226C3.16809 11.8358 3.67862 11.5701 4.23443 11.4624C4.79023 11.3547 5.36633 11.41 5.88989 11.6212C6.41344 11.8324 6.86093 12.19 7.17577 12.6488C7.49061 13.1077 7.65865 13.6471 7.65865 14.199C7.65865 14.939 7.35678 15.6487 6.81944 16.172C6.2821 16.6952 5.55332 16.9892 4.79341 16.9892Z" fill="white"/>
</svg>
